<svg width="500" height="500" viewBox="0 0 500 500" fill="none" xmlns="http://www.w3.org/2000/svg">
<path d="M403.6 311.6C423.9 231.1 375 136.8 291.9 86.8C328.8 136.7 343.6 195.9 330.7 248.7C329.8 253.3 327.9 258 326.1 262.6C310.2 251.6 236.5 206.2 147.9 116.5C145.1 113.7 195.9 188.7 252.2 247.8C225.4 232.1 150.6 178.4 103.5 135C109 144.3 116.4 153.5 123.8 163.7C163.5 214.6 214.3 275.6 276.2 322.8C232.8 349.6 171.9 351.5 110 322.8C94.3 316.3 81.4 307.1 67.5 296.9C93.4 337.6 133.1 373.7 181.1 394C238.4 419 297 419.2 344.5 390.3C364.8 380.1 405.4 369 427.6 411.6C432.2 423.6 443.3 368.1 401.7 317.3C402.7 315.3 402.7 313.5 403.6 311.6Z" fill="url(#paint0_linear_101_2)"/>
<defs>
<linearGradient id="paint0_linear_101_2" x1="249.999" y1="86.8369" x2="249.999" y2="413.162" gradientUnits="userSpaceOnUse">
<stop stop-color="#F88A36"/>
<stop offset="1" stop-color="#FD2020"/>
</linearGradient>
</defs>
</svg>
